<!DOCTYPE svg PUBLIC "-//W3C//DTD SVG 20010904//EN" "http://www.w3.org/TR/2001/REC-SVG-20010904/DTD/svg10.dtd">
<svg version="1.0" xmlns="http://www.w3.org/2000/svg" width="1061px" height="807px" viewBox="0 0 10610 8070" preserveAspectRatio="xMidYMid meet">
<g id="layer101" fill="#699295" stroke="none">
 <path d="M5556 7815 c-41 -23 -63 -27 -152 -31 -100 -3 -124 -10 -176 -47 -14 -9 -22 -9 -39 1 -11 7 -57 22 -102 32 -45 10 -100 23 -121 29 -50 12 -85 6 -162 -30 -66 -31 -89 -57 -108 -123 -11 -37 -15 -41 -40 -38 -16 2 -45 15 -67 29 -53 35 -125 35 -178 0 -21 -14 -56 -29 -77 -33 -95 -17 -139 -67 -139 -159 0 -41 6 -68 18 -85 16 -23 24 -80 11 -80 -3 0 -19 11 -36 25 -52 44 -130 51 -194 17 -16 -9 -28 -5 -63 19 -111 74 -245 4 -243 -127 0 -56 25 -99 74 -132 22 -15 59 -44 82 -65 22 -22 51 -43 64 -48 32 -12 99 -11 137 2 27 10 35 8 78 -21 48 -32 67 -56 67 -84 0 -20 -57 -99 -109 -151 -71 -70 -73 -173 -6 -260 32 -43 57 -112 49 -137 -3 -10 0 -42 7 -72 11 -50 10 -56 -10 -84 -11 -17 -24 -50 -27 -75 -5 -36 -12 -46 -38 -59 -139 -69 -147 -75 -210 -166 -35 -52 -48 -80 -53 -120 -4 -37 -12 -56 -24 -63 -25 -13 -66 -86 -74 -131 -5 -23 -14 -39 -25 -43 -11 -3 -33 -22 -50 -42 -28 -31 -31 -42 -30 -92 1 -31 1 -61 1 -67 -2 -26 -103 -51 -296 -74 -59 -7 -107 -20 -140 -37 l-50 -25 -90 46 c-49 25 -94 46 -101 46 -6 0 -14 22 -17 51 -12 99 -69 152 -166 153 -68 0 -111 -21 -145 -70 -13 -19 -42 -45 -65 -56 -94 -46 -123 -164 -64 -255 21 -31 12 -37 -54 -40 -97 -4 -156 -59 -169 -157 l-7 -45 -33 26 c-40 30 -107 40 -157 24 -39 -13 -97 -72 -97 -99 0 -38 -14 -45 -61 -31 -70 20 -85 35 -129 124 -53 110 -88 138 -169 138 -69 0 -115 -22 -148 -73 -18 -26 -23 -47 -23 -99 0 -116 26 -173 97 -209 17 -10 46 -39 65 -67 26 -40 44 -54 86 -71 75 -30 77 -33 62 -102 -6 -32 -11 -88 -9 -123 2 -35 2 -83 1 -106 -2 -40 -5 -44 -48 -65 -33 -15 -56 -36 -79 -72 -18 -28 -44 -57 -57 -64 -61 -33 -79 -129 -39 -198 23 -38 23 -39 5 -94 -9 -30 -18 -61 -20 -67 -7 -27 -22 -11 -28 28 -4 23 -13 53 -20 68 -8 16 -10 34 -5 46 4 11 8 43 8 70 2 106 -86 168 -202 143 -58 -12 -108 -57 -125 -114 -6 -21 -32 -64 -57 -94 -47 -57 -66 -104 -62 -155 l2 -30 -73 -6 c-57 -6 -80 -13 -107 -34 -44 -33 -65 -73 -65 -125 0 -50 11 -72 61 -127 52 -56 54 -111 8 -176 -35 -50 -47 -111 -30 -158 12 -35 4 -49 -32 -49 -9 0 -34 -11 -55 -24 -20 -14 -56 -30 -80 -37 -76 -22 -122 -97 -122 -198 0 -38 -5 -49 -39 -80 -73 -67 -77 -166 -11 -233 39 -39 45 -41 150 -43 162 -2 157 -1 165 -42 4 -21 17 -56 30 -78 12 -22 26 -52 29 -68 4 -15 23 -45 42 -67 l36 -40 -24 -37 c-18 -31 -23 -51 -22 -104 2 -113 12 -153 48 -195 18 -22 37 -55 41 -74 4 -19 15 -46 25 -60 9 -14 34 -59 54 -100 21 -41 50 -88 65 -103 51 -53 158 -57 228 -10 36 24 73 28 80 6 3 -7 -17 -16 -51 -23 -43 -9 -65 -21 -99 -54 -82 -79 -84 -180 -5 -256 70 -68 152 -75 256 -22 l52 27 42 -24 c61 -35 133 -33 195 5 43 27 68 60 98 135 9 21 16 24 63 23 30 -1 59 -7 64 -12 12 -12 -17 -65 -52 -97 -11 -10 -27 -42 -36 -71 -20 -71 -7 -119 51 -184 25 -28 45 -55 45 -59 0 -5 56 -66 125 -136 103 -105 132 -129 165 -136 157 -35 277 137 191 273 -16 25 -34 49 -40 52 -6 4 -11 16 -11 26 0 16 8 18 54 18 37 0 68 7 101 23 36 18 49 21 53 11 17 -52 93 -102 154 -102 43 0 113 36 138 70 26 37 73 64 134 79 86 21 137 74 151 156 11 68 15 73 53 86 54 18 79 36 103 78 32 52 60 81 79 81 14 0 18 -12 23 -60 9 -99 64 -152 158 -152 79 0 141 49 168 134 23 69 91 59 91 -13 0 -117 128 -194 237 -143 45 22 76 65 101 142 12 34 36 81 55 103 58 67 66 148 21 217 -22 34 -46 51 -109 79 -59 26 -104 28 -171 8 -45 -13 -50 -13 -61 2 -21 28 -15 40 30 57 24 9 56 30 72 46 l28 29 42 -24 c30 -18 57 -25 93 -25 42 0 60 -6 97 -32 38 -27 54 -32 99 -32 69 1 115 29 154 92 23 38 37 49 72 58 l42 12 -6 -47 c-3 -26 -3 -62 0 -79 9 -47 68 -110 114 -122 35 -9 39 -14 50 -61 16 -67 62 -114 125 -127 87 -18 147 10 202 94 17 27 46 63 64 81 l33 31 39 -20 c86 -43 190 -18 237 58 12 18 26 34 30 34 19 0 33 -48 34 -115 1 -54 6 -78 24 -107 32 -52 82 -80 141 -80 53 0 72 8 138 58 41 31 113 59 133 52 5 -2 20 -23 33 -48 27 -53 98 -105 157 -115 29 -5 46 -15 62 -38 34 -48 58 -65 108 -76 42 -9 88 -4 131 13 21 9 54 -42 64 -99 11 -62 44 -112 102 -152 44 -30 61 -36 106 -36 57 0 87 12 128 50 l27 25 42 -29 c40 -25 50 -28 127 -26 l83 2 38 -38 c20 -22 53 -56 73 -77 62 -66 148 -138 182 -153 19 -8 56 -12 93 -9 74 5 123 37 151 99 14 32 28 46 70 65 45 21 56 33 78 79 22 46 30 55 59 61 19 3 39 3 44 0 11 -7 28 -100 24 -131 -2 -11 2 -48 8 -81 12 -60 11 -63 -21 -125 -46 -87 -47 -159 -4 -220 48 -68 77 -84 149 -84 52 0 69 5 102 27 21 15 59 38 83 50 82 43 112 159 63 242 -18 30 -22 53 -22 115 l0 78 60 12 c49 10 64 18 90 49 16 20 30 42 30 48 0 6 11 22 24 35 13 13 40 56 61 94 20 39 59 91 85 117 47 45 70 92 70 146 0 40 18 59 72 78 29 11 66 33 84 51 l31 31 6 -54 c7 -67 45 -135 90 -163 18 -11 58 -25 88 -32 30 -6 72 -23 94 -37 82 -53 196 -38 251 33 28 37 47 140 48 262 1 81 -12 106 -81 158 -35 27 -41 37 -52 97 -15 82 -6 152 25 193 31 42 45 102 46 206 0 49 5 92 10 95 5 3 38 -2 74 -11 94 -23 145 -13 199 39 33 32 47 56 64 113 25 85 26 124 5 169 -18 37 -71 94 -89 94 -6 0 -19 6 -29 13 -17 13 -13 17 44 56 l63 42 59 -21 c182 -63 322 37 293 210 -9 52 -44 94 -110 131 -66 37 -81 54 -90 104 -13 76 -76 143 -152 159 l-30 7 1 69 c1 62 -2 73 -31 113 l-31 45 31 13 c18 8 50 32 73 55 76 75 81 176 14 281 -34 54 -36 67 -14 159 19 82 8 143 -37 197 -102 124 -337 102 -403 -38 -14 -29 -22 -33 -68 -39 -29 -4 -68 -16 -87 -27 -59 -35 -134 -59 -183 -59 -42 0 -48 3 -68 35 -26 42 -68 73 -109 81 -40 8 -39 17 3 43 43 27 61 54 80 122 8 30 21 73 28 97 10 34 10 51 -1 90 -16 59 -41 86 -116 124 -33 17 -72 39 -86 49 -14 10 -38 21 -53 25 -15 3 -50 26 -77 49 -27 23 -64 46 -82 51 -30 9 -32 12 -33 59 -2 97 -57 159 -151 171 -32 3 -71 13 -88 22 -16 8 -55 15 -87 15 -46 0 -65 -5 -106 -32 -41 -26 -54 -30 -74 -22 -20 8 -27 19 -32 53 -8 54 -52 111 -109 140 -23 11 -60 40 -84 64 -23 24 -49 44 -58 44 -20 0 -19 13 5 52 44 72 34 170 -23 235 -31 35 -32 40 -32 122 0 72 -4 92 -22 122 -31 50 -91 87 -153 95 -53 7 -76 23 -107 74 -37 62 -135 93 -223 70 -39 -10 -151 -28 -186 -29 -6 -1 -32 -19 -56 -41 l-46 -40 -12 29 c-18 44 -69 87 -134 110 -32 12 -77 34 -100 50 -22 15 -52 32 -66 36 -14 4 -45 18 -70 31 -25 12 -67 26 -94 30 -26 3 -68 18 -93 32 -57 32 -136 33 -194 3 l-40 -21 -46 27 c-25 14 -61 48 -80 75 -20 27 -44 53 -54 59 -13 7 -19 21 -19 47 0 96 -36 146 -136 192 -40 18 -69 39 -84 61 -12 19 -36 45 -51 59 -28 24 -38 54 -55 160 -3 19 -1 47 5 63 10 27 12 27 89 25 69 -2 83 1 124 25 26 15 59 27 75 27 41 0 74 21 163 101 79 72 100 106 100 162 0 45 -35 110 -71 131 -44 26 -117 25 -163 -2 -23 -14 -54 -22 -82 -22 -25 0 -54 -5 -65 -11 -18 -9 -19 -8 -12 18 12 42 8 173 -6 216 -29 86 -135 120 -225 72z"/>
 </g>

</svg>